# xmcd
#
# Track frame offsets:
#	150
#	11575
#	22100
#	35625
#	44700
#	55950
#	65462
#	75025
#	108650
#	121200
#	131750
#	142400
#	157300
#	166325
#	182750
#	192375
#
# Disc length: 2692
#
# Revision: 1
# Processed by: cddbd v1.5.1PL0 Copyright (c) Steve Scherf et al.
# Submitted via: dBpowerAMP V4.0
# Normalized: r0:TRMNUM
#
DISCID=ed0a8210
DTITLE=Loretta Lynn - Her Country Hits Show
DYEAR=1900
DGENRE=Country
TTITLE0=Hey Loretta
TTITLE1=You're Looking At Country
TTITLE2=Let Your Love Flow
TTITLE3=We've Come A Long Way Baby
TTITLE4=Spring Fever 
TTITLE5=Your Squaw Is On The War Path
TTITLE6=Fist City
TTITLE7=Medley I fall to pieces, Walking After Midnight, Crazy, etc
TTITLE8=Me And Bobby Mcgee
TTITLE9=Somebody Somewhere 
TTITLE10=Out Of My Head And Back In My Bed
TTITLE11=Coal Miner's Daughter
TTITLE12=They Don't Make 'Em Like My Daddy Anymore
TTITLE13=The Pill 
TTITLE14=Y'll All Come
TTITLE15=You Aint Woman Enough
EXTD=
EXTT0=
EXTT1=
EXTT2=
EXTT3=
EXTT4=
EXTT5=
EXTT6=
EXTT7=
EXTT8=
EXTT9=
EXTT10=
EXTT11=
EXTT12=
EXTT13=
EXTT14=
EXTT15=
PLAYORDER=
